<?xml version="1.0" encoding="iso-8859-1"?>
<!-- Generator: Adobe Illustrator 19.0.0, SVG Export Plug-In . SVG Version: 6.00 Build 0)  -->
<svg version="1.1" id="Capa_1" xmlns="http://www.w3.org/2000/svg" xmlns:xlink="http://www.w3.org/1999/xlink" x="0px" y="0px"
	 viewBox="0 0 512 512" style="enable-background:new 0 0 512 512;" xml:space="preserve">
<circle style="fill:#E7552B;" cx="373.153" cy="43.39" r="43.39"/>
<circle style="fill:#5BD2F3;" cx="156.203" cy="199.593" r="43.39"/>
<path style="fill:#E7552B;" d="M390.508,156.203l8.678,34.712l-34.712,43.39l-17.356,86.78h52.068l8.678-69.424l51.92-38.938
	c10.691-8.018,15.829-21.469,13.208-34.573l0,0c-8.452-42.27-31.128-80.375-64.243-107.98l-0.885-0.746l-43.39,8.678l-17.356,69.424
	l-52.068,34.712l17.356,34.712l69.424-43.39l17.356-34.712"/>
<polygon style="fill:#BE4522;" points="433.898,234.305 442.576,277.695 459.932,321.085 503.322,321.085 477.288,242.983 
	468.61,208.271 "/>
<polygon style="fill:#DB9215;" points="512,321.085 329.763,321.085 251.661,407.864 164.881,407.864 112.814,477.288 0,503.322 
	0,512 512,512 "/>
<g>
	<polygon style="fill:#5BD2F3;" points="164.881,286.373 260.339,277.695 312.407,216.949 295.051,182.237 242.983,234.305 
		164.881,234.305 	"/>
	<path style="fill:#5BD2F3;" d="M130.169,234.305l-26.902,69.944c-8.27,21.504,6.318,44.943,29.253,47.026l49.716,4.521v52.068
		h43.39v-72.079c0-8.487-6.135-15.724-14.501-17.122l-37.567-6.257l26.034-69.424L130.169,234.305z"/>
</g>
<polygon style="fill:#5AC6DD;" points="112.814,347.119 86.78,390.508 43.39,433.898 69.424,459.932 121.492,407.864 
	156.203,355.797 130.169,355.797 "/>
<g>
	<path style="fill:#BEECF4;" d="M121.492,17.356c-5.476,0-10.665,1.128-15.481,2.977C94.885,7.88,78.753,0,60.746,0
		C27.197,0,0,27.197,0,60.746h78.102h43.39h43.39C164.881,36.786,145.451,17.356,121.492,17.356z"/>
	<rect x="121.492" y="86.78" style="fill:#BEECF4;" width="17.356" height="17.356"/>
	<rect x="156.203" y="86.78" style="fill:#BEECF4;" width="17.356" height="17.356"/>
	<rect x="190.915" y="86.78" style="fill:#BEECF4;" width="17.356" height="17.356"/>
</g>
<g>
</g>
<g>
</g>
<g>
</g>
<g>
</g>
<g>
</g>
<g>
</g>
<g>
</g>
<g>
</g>
<g>
</g>
<g>
</g>
<g>
</g>
<g>
</g>
<g>
</g>
<g>
</g>
<g>
</g>
</svg>
